<svg width="40" height="40" viewBox="0 0 40 40" fill="none" xmlns="http://www.w3.org/2000/svg">
<g clip-path="url(#clip0_280_5)">
<path d="M20 40C31.0457 40 40 31.0457 40 20C40 8.9543 31.0457 0 20 0C8.9543 0 0 8.9543 0 20C0 31.0457 8.9543 40 20 40Z" fill="#EEEBE4"/>
<path fill-rule="evenodd" clip-rule="evenodd" d="M28.5725 12.1429C28.5725 11.9534 28.4972 11.7718 28.3633 11.6378C28.2293 11.5038 28.0477 11.4286 27.8582 11.4286H19.2868C19.0973 11.4286 18.9157 11.5038 18.7817 11.6378C18.6478 11.7718 18.5725 11.9534 18.5725 12.1429C18.5725 12.3323 18.6478 12.514 18.7817 12.648C18.9157 12.7819 19.0973 12.8572 19.2868 12.8572H26.1339L11.6382 27.3514C11.5718 27.4179 11.5191 27.4967 11.4832 27.5835C11.4472 27.6702 11.4287 27.7632 11.4287 27.8572C11.4287 27.9511 11.4472 28.0441 11.4832 28.1309C11.5191 28.2176 11.5718 28.2965 11.6382 28.3629C11.7046 28.4293 11.7835 28.482 11.8702 28.5179C11.957 28.5539 12.05 28.5723 12.1439 28.5723C12.2378 28.5723 12.3308 28.5539 12.4176 28.5179C12.5044 28.482 12.5832 28.4293 12.6496 28.3629L27.1439 13.8672V20.7143C27.1439 20.9037 27.2192 21.0854 27.3531 21.2194C27.4871 21.3533 27.6688 21.4286 27.8582 21.4286C28.0477 21.4286 28.2293 21.3533 28.3633 21.2194C28.4972 21.0854 28.5725 20.9037 28.5725 20.7143V12.1429Z" fill="#D4721C"/>
</g>
<defs>
<clipPath id="clip0_280_5">
<rect width="40" height="40" fill="white"/>
</clipPath>
</defs>
</svg>
