<svg width="48" height="49" viewBox="0 0 48 49" fill="none" xmlns="http://www.w3.org/2000/svg">
<g clip-path="url(#clip0_284_5)">
<path d="M24 48.708C37.2548 48.708 48 37.8677 48 24.4956C48 11.1235 37.2548 0.283203 24 0.283203C10.7452 0.283203 0 11.1235 0 24.4956C0 37.8677 10.7452 48.708 24 48.708Z" fill="#D4721C"/>
<path d="M28.6511 18.0559C29.9143 17.3746 30.9718 16.355 31.7098 15.1066C32.4478 13.8581 32.8385 12.428 32.8397 10.97C32.8397 10.7043 32.7363 10.4495 32.5522 10.2616C32.3681 10.0737 32.1183 9.96814 31.8579 9.96814H30.8761C29.4725 9.96868 28.0947 10.353 26.886 11.0812C25.6773 11.8093 24.6819 12.8546 24.0034 14.1084C23.3248 12.8546 22.3294 11.8093 21.1208 11.0812C19.9121 10.353 18.5343 9.96868 17.1307 9.96814H16.1488C15.8885 9.96814 15.6387 10.0737 15.4546 10.2616C15.2705 10.4495 15.167 10.7043 15.167 10.97C15.167 11.2357 15.2705 11.4906 15.4546 11.6785C15.6387 11.8664 15.8885 11.9719 16.1488 11.9719H17.1307C18.5313 11.9739 19.8856 12.4842 20.9513 13.4116C22.0171 14.3389 22.7248 15.6229 22.9479 17.0339C20.3491 17.2935 17.9304 18.5051 16.1397 20.4444C14.3489 22.3837 13.3074 24.9195 13.2079 27.5821C13.1083 30.2448 13.9575 32.8541 15.5983 34.927C17.239 37 19.5602 38.3961 22.1321 38.8569C24.704 39.3178 27.3525 38.8121 29.5871 37.4337C31.8218 36.0552 33.4914 33.8972 34.2868 31.3592C35.0822 28.8212 34.9495 26.0751 33.9134 23.6292C32.8772 21.1834 31.0078 19.2034 28.6511 18.0559ZM30.7939 11.9719C30.5623 13.3576 29.863 14.617 28.8172 15.5319C27.7713 16.4468 26.4448 16.9595 25.0674 16.9813C25.299 15.5956 25.9983 14.3363 27.0441 13.4214C28.09 12.5065 29.4165 11.9937 30.7939 11.9719ZM24.0034 37.019C22.2557 37.019 20.5473 36.4902 19.0942 35.4994C17.641 34.5086 16.5085 33.1003 15.8397 31.4527C15.1709 29.8051 14.9959 27.9921 15.3368 26.2429C15.6778 24.4938 16.5194 22.8872 17.7551 21.6261C18.9909 20.3651 20.5654 19.5063 22.2795 19.1584C23.9936 18.8104 25.7703 18.989 27.3849 19.6715C28.9995 20.3539 30.3796 21.5097 31.3506 22.9925C32.3215 24.4753 32.8397 26.2187 32.8397 28.0021C32.8371 30.3927 31.9053 32.6847 30.2488 34.3751C28.5922 36.0655 26.3461 37.0164 24.0034 37.019ZM30.8626 29.1693C30.6101 30.6217 29.9264 31.96 28.9043 33.0031C27.8821 34.0462 26.5706 34.7438 25.1472 35.0015C25.0936 35.0104 25.0395 35.015 24.9852 35.0153C24.739 35.0149 24.502 34.9201 24.321 34.7498C24.1401 34.5795 24.0284 34.346 24.0082 34.0957C23.988 33.8453 24.0606 33.5964 24.2118 33.3981C24.363 33.1998 24.5816 33.0668 24.8244 33.0253C25.8461 32.84 26.7874 32.3392 27.5211 31.5905C28.2549 30.8417 28.7457 29.8812 28.9272 28.8386C28.9723 28.5786 29.1162 28.3472 29.3276 28.1948C29.5389 28.0424 29.8008 27.9814 30.056 28.025C30.3113 28.0685 30.5394 28.2132 30.6907 28.4275C30.8419 28.6418 30.9042 28.9084 30.8638 29.1693H30.8626Z" fill="#EEEBE4"/>
</g>
<defs>
<clipPath id="clip0_284_5">
<rect width="48" height="49" fill="white"/>
</clipPath>
</defs>
</svg>
